<?xml version="1.0" standalone="no"?>
<!DOCTYPE svg PUBLIC "-//W3C//DTD SVG 20010904//EN"
 "http://www.w3.org/TR/2001/REC-SVG-20010904/DTD/svg10.dtd">
<svg version="1.0" xmlns="http://www.w3.org/2000/svg"
 width="165.000000pt" height="65.000000pt" viewBox="0 0 165.000000 65.000000"
 preserveAspectRatio="xMidYMid meet">

<g transform="translate(0.000000,65.000000) scale(0.100000,-0.100000)"
fill="#000000" stroke="none">
<path d="M100 310 l0 -110 110 0 110 0 0 37 c0 37 0 37 -15 16 -23 -33 -83
-48 -129 -33 -43 14 -66 43 -66 85 0 41 23 71 64 85 44 14 109 -2 131 -33 14
-21 15 -20 15 21 l0 42 -110 0 -110 0 0 -110z"/>
<path d="M1132 340 c29 -31 38 -49 38 -75 0 -19 5 -35 10 -35 22 0 10 70 -17
101 -16 17 -27 35 -25 40 1 5 -9 9 -21 9 -23 0 -22 -2 15 -40z"/>
<path d="M172 358 c-17 -17 -15 -84 4 -102 51 -52 120 26 84 95 -12 22 -68 27
-88 7z"/>
<path d="M540 365 c0 -18 67 -135 77 -135 7 0 -6 32 -28 70 -37 64 -49 80 -49
65z"/>
<path d="M1436 358 c-10 -23 -1 -35 42 -56 20 -9 42 -27 48 -40 9 -18 13 -20
17 -9 8 21 -11 42 -55 62 -23 10 -38 25 -41 38 -3 19 -4 20 -11 5z"/>
<path d="M812 346 c2 -11 23 -32 48 -46 28 -17 44 -33 43 -45 -1 -12 2 -14 9
-7 17 17 2 40 -41 61 -22 12 -45 29 -51 38 -10 17 -11 17 -8 -1z"/>
</g>
</svg>
